<svg width="166" height="63" viewBox="0 0 166 63" fill="none" xmlns="http://www.w3.org/2000/svg">
<path d="M52.0083 40.46C50.2628 40.46 48.7005 40.0757 47.3129 39.2985C45.9339 38.5212 44.8429 37.4558 44.0487 36.0935C43.2545 34.7311 42.853 33.1854 42.853 31.465C42.853 29.7446 43.2545 28.1726 44.0487 26.8365C44.8429 25.5003 45.9252 24.4436 47.2954 23.6664C48.6656 22.8891 50.2366 22.5049 52.0083 22.5049C53.78 22.5049 55.3161 22.8891 56.7038 23.6489C58.0828 24.4087 59.165 25.4654 59.9505 26.819C60.736 28.1726 61.1287 29.7184 61.1287 31.465C61.1287 33.2116 60.736 34.7573 59.9505 36.1109C59.165 37.4645 58.0828 38.5212 56.7038 39.2985C55.3248 40.0757 53.7539 40.46 52.0083 40.46ZM52.0083 37.6741C53.1342 37.6741 54.1466 37.4209 55.0455 36.9144C55.9445 36.4078 56.6427 35.683 57.1489 34.7398C57.6551 33.7967 57.9082 32.7138 57.9082 31.4737C57.9082 30.2336 57.6551 29.1245 57.1489 28.2075C56.6427 27.2906 55.9358 26.5745 55.0455 26.068C54.1466 25.5614 53.1342 25.3082 52.0083 25.3082C50.8825 25.3082 49.8788 25.5614 48.9886 26.068C48.1071 26.5745 47.4001 27.2906 46.8677 28.2075C46.3354 29.1245 46.0735 30.2161 46.0735 31.4737C46.0735 32.7312 46.3354 33.8054 46.8677 34.7398C47.4001 35.683 48.1071 36.4078 48.9886 36.9144C49.8701 37.4209 50.8825 37.6741 52.0083 37.6741Z" fill="white"/>
<path d="M66.6009 40.2591V22.6708H69.6556V27.4478L69.3588 26.2513C69.8476 25.0375 70.6592 24.103 71.8113 23.4655C72.9633 22.828 74.3772 22.5049 76.0529 22.5049V25.5876C75.922 25.5702 75.7911 25.5527 75.6689 25.5527H75.3198C73.6179 25.5527 72.2651 26.0592 71.2702 27.081C70.2752 28.1027 69.7778 29.5699 69.7778 31.4912V40.2504H66.5922L66.6009 40.2591Z" fill="white"/>
<path d="M88.1582 39.5343C86.4563 39.5343 84.9377 39.1763 83.5937 38.4602C82.2496 37.7441 81.1936 36.7398 80.4081 35.456C79.6226 34.1723 79.2299 32.6876 79.2299 31.0109C79.2299 29.3342 79.6226 27.8233 80.4081 26.5483C81.1936 25.2733 82.2584 24.2865 83.5937 23.5791C84.929 22.8717 86.4476 22.5137 88.1582 22.5137C89.6594 22.5137 91.0296 22.8193 92.269 23.4219C93.5083 24.0332 94.4945 24.9677 95.2364 26.2252C95.9782 27.4828 96.3448 29.0809 96.3448 31.0022C96.3448 32.9234 95.9782 34.4866 95.2364 35.7442C94.4945 37.0018 93.5083 37.9537 92.269 38.5824C91.0296 39.2112 89.6594 39.5256 88.1582 39.5256V39.5343ZM88.5597 46.905C86.9451 46.905 85.3828 46.6779 83.8642 46.2238C82.3456 45.7697 81.115 45.1235 80.1637 44.2851L81.6911 41.8311C82.5115 42.5385 83.5151 43.0974 84.7108 43.5078C85.9065 43.9183 87.1546 44.1192 88.455 44.1192C90.5322 44.1192 92.0595 43.6301 93.0283 42.6607C93.997 41.6914 94.4858 40.2068 94.4858 38.2156V34.4954L94.8174 31.0109L94.6516 27.4915V22.6796H97.6714V37.8751C97.6714 40.9753 96.8946 43.2546 95.3498 44.713C93.805 46.1714 91.5358 46.905 88.551 46.905H88.5597ZM88.5248 36.7485C89.6943 36.7485 90.7329 36.504 91.6406 36.0149C92.5482 35.5259 93.2639 34.8534 93.7788 33.9889C94.3025 33.1243 94.5556 32.1287 94.5556 31.0022C94.5556 29.8756 94.2938 28.88 93.7788 28.0155C93.2639 27.1509 92.5482 26.4872 91.6406 26.0069C90.7329 25.5353 89.6943 25.2908 88.5248 25.2908C87.3553 25.2908 86.308 25.5266 85.3916 26.0069C84.4752 26.4785 83.7508 27.1509 83.2358 28.0155C82.7209 28.88 82.4591 29.8756 82.4591 31.0022C82.4591 32.1287 82.7209 33.1243 83.2358 33.9889C83.7595 34.8534 84.4752 35.5259 85.3916 36.0149C86.308 36.504 87.3553 36.7485 88.5248 36.7485Z" fill="white"/>
<path d="M109.951 40.4599C108.642 40.4599 107.499 40.2416 106.521 39.7962C105.535 39.3508 104.776 38.7395 104.252 37.9535C103.72 37.1676 103.458 36.2768 103.458 35.2812C103.458 34.2857 103.685 33.4648 104.139 32.6963C104.592 31.919 105.334 31.299 106.364 30.8361C107.394 30.3733 108.782 30.1375 110.527 30.1375H116.095V32.4255H110.658C109.07 32.4255 107.996 32.6875 107.438 33.2202C106.888 33.753 106.608 34.3905 106.608 35.1415C106.608 36.0061 106.949 36.696 107.638 37.22C108.319 37.7439 109.27 37.9972 110.492 37.9972C111.714 37.9972 112.735 37.7352 113.625 37.2025C114.524 36.6698 115.17 35.9013 115.563 34.8795L116.191 37.0715C115.772 38.1107 115.031 38.9316 113.966 39.5429C112.901 40.1543 111.566 40.4512 109.951 40.4512V40.4599ZM115.72 40.2591V36.5388L115.554 35.8401V29.5C115.554 28.1551 115.162 27.1071 114.376 26.3648C113.591 25.6225 112.412 25.2557 110.841 25.2557C109.803 25.2557 108.782 25.4304 107.787 25.771C106.792 26.1116 105.954 26.5744 105.264 27.1508L103.938 24.7579C104.845 24.0244 105.936 23.4655 107.202 23.0812C108.476 22.697 109.803 22.4961 111.199 22.4961C113.608 22.4961 115.467 23.0812 116.767 24.2514C118.068 25.4217 118.722 27.2207 118.722 29.631V40.2503H115.703L115.72 40.2591Z" fill="white"/>
<path d="M135.087 22.5049C136.527 22.5049 137.792 22.7843 138.883 23.3345C139.974 23.8847 140.838 24.7318 141.449 25.8584C142.06 26.9849 142.374 28.4171 142.374 30.1375V40.2591H139.189V30.5043C139.189 28.8014 138.779 27.5176 137.949 26.6531C137.12 25.7885 135.951 25.3606 134.45 25.3606C133.324 25.3606 132.338 25.5789 131.5 26.0243C130.662 26.4697 130.016 27.1159 129.562 27.9805C129.108 28.8451 128.881 29.9192 128.881 31.203V40.2591H125.696V22.6708H128.75V27.4128L128.253 26.1553C128.829 25.0025 129.711 24.1118 130.906 23.4655C132.102 22.828 133.49 22.5049 135.087 22.5049Z" fill="white"/>
<path d="M156.88 40.46C155.134 40.46 153.572 40.0757 152.184 39.2985C150.805 38.5212 149.714 37.4558 148.92 36.0935C148.126 34.7311 147.724 33.1854 147.724 31.465C147.724 29.7446 148.126 28.1726 148.92 26.8365C149.714 25.5003 150.796 24.4436 152.167 23.6664C153.537 22.8891 155.108 22.5049 156.88 22.5049C158.651 22.5049 160.187 22.8891 161.575 23.6489C162.963 24.4087 164.036 25.4654 164.822 26.819C165.607 28.1726 166 29.7184 166 31.465C166 33.2116 165.607 34.7573 164.822 36.1109C164.036 37.4645 162.954 38.5212 161.575 39.2985C160.196 40.0757 158.625 40.46 156.88 40.46ZM156.88 37.6741C158.006 37.6741 159.018 37.4209 159.917 36.9144C160.816 36.4078 161.514 35.683 162.02 34.7398C162.526 33.7967 162.78 32.7138 162.78 31.4737C162.78 30.2336 162.526 29.1245 162.02 28.2075C161.514 27.2906 160.807 26.5745 159.917 26.068C159.018 25.5614 158.014 25.3082 156.88 25.3082C155.745 25.3082 154.741 25.5614 153.86 26.068C152.978 26.5745 152.271 27.2906 151.739 28.2075C151.207 29.1245 150.945 30.2161 150.945 31.4737C150.945 32.7312 151.207 33.8054 151.739 34.7398C152.271 35.683 152.978 36.4078 153.86 36.9144C154.741 37.4209 155.754 37.6741 156.88 37.6741Z" fill="white"/>
<path d="M5.30667 12.2262C5.52486 12.6629 5.96997 12.9423 6.45872 12.9423C6.94747 12.9423 7.39258 12.6629 7.61077 12.2262L12.795 1.86887C12.9957 1.46715 12.9695 0.995564 12.7339 0.611311C12.4982 0.227059 12.0793 0 11.6342 0H1.29195C0.846844 0 0.427917 0.235792 0.192271 0.611311C-0.0433758 0.995564 -0.060831 1.46715 0.131177 1.86887L5.30667 12.2262ZM9.5483 2.58497L6.46745 8.75922L3.38659 2.58497H9.5483ZM6.46745 37.9712C8.18679 37.9712 9.82759 37.29 11.0407 36.0761C12.2539 34.8622 12.9346 33.2117 12.9346 31.5C12.9346 29.7883 12.2539 28.1378 11.0407 26.9239C9.82759 25.71 8.17806 25.0288 6.46745 25.0288C4.75683 25.0288 3.1073 25.71 1.89416 26.9239C0.681019 28.1378 0.000262606 29.7883 0.000262606 31.5C0.000262606 33.2117 0.681019 34.8622 1.89416 36.0761C3.1073 37.29 4.7481 37.9712 6.46745 37.9712ZM6.46745 27.6138C7.49731 27.6138 8.48353 28.0243 9.21665 28.7491C9.94105 29.4739 10.3512 30.4695 10.3512 31.5C10.3512 32.5305 9.94105 33.5173 9.21665 34.2509C8.49226 34.9757 7.49731 35.3862 6.46745 35.3862C5.43758 35.3862 4.45136 34.9757 3.71824 34.2509C2.99384 33.5261 2.58364 32.5305 2.58364 31.5C2.58364 30.4695 2.99384 29.4827 3.71824 28.7491C4.44263 28.0243 5.43758 27.6138 6.46745 27.6138ZM1.29195 63H11.6429C12.3586 63 12.9346 62.4236 12.9346 61.7075V51.3502C12.9346 50.634 12.3586 50.0577 11.6429 50.0577H1.29195C0.576287 50.0577 0.000262606 50.634 0.000262606 51.3502V61.7075C0.000262606 62.4236 0.576287 63 1.29195 63ZM2.58364 52.6426H10.3512V60.415H2.58364V52.6426ZM23.2856 55.2363V32.7925H15.9544C15.2387 32.7925 14.6627 32.2161 14.6627 31.5C14.6627 30.7839 15.2387 30.2075 15.9544 30.2075H23.2856V7.76365H15.9544C15.2387 7.76365 14.6627 7.18727 14.6627 6.47117C14.6627 5.75506 15.2387 5.17868 15.9544 5.17868H24.5773C25.293 5.17868 25.869 5.75506 25.869 6.47117V30.2075H33.2002C33.9159 30.2075 34.4919 30.7839 34.4919 31.5C34.4919 32.2161 33.9159 32.7925 33.2002 32.7925H25.869V56.5288C25.869 57.2449 25.293 57.8213 24.5773 57.8213H15.9544C15.2387 57.8213 14.6627 57.2449 14.6627 56.5288C14.6627 55.8127 15.2387 55.2363 15.9544 55.2363H23.2856Z" fill="white"/>
</svg>
